<?xml version="1.0" standalone="no"?><!DOCTYPE svg PUBLIC "-//W3C//DTD SVG 1.1//EN" "http://www.w3.org/Graphics/SVG/1.1/DTD/svg11.dtd"><svg t="1697196246258" class="icon" viewBox="0 0 1024 1024" version="1.1" xmlns="http://www.w3.org/2000/svg" p-id="6167" xmlns:xlink="http://www.w3.org/1999/xlink" width="200" height="200"><path d="M807.8848 685.4656a49.664 49.664 0 1 0 0-99.328 49.664 49.664 0 0 0 0 99.328zM267.0592 944.64H141.3632a62.0544 62.0544 0 0 1-62.0032-62.0032v-118.784a38.4 38.4 0 0 0-76.8 0v118.784a138.9568 138.9568 0 0 0 138.8032 138.8032h125.696a38.4 38.4 0 0 0 0-76.8zM40.96 297.1648a38.4 38.4 0 0 0 38.4-38.4V141.4144c0-34.2016 27.8016-62.0544 62.0032-62.0544h125.696a38.4 38.4 0 0 0 0-76.8H141.3632A139.008 139.008 0 0 0 2.56 141.4144v117.3504c0 21.1968 17.2032 38.4 38.4 38.4zM983.04 725.4016a38.4 38.4 0 0 0-38.4 38.4v118.784c0 34.2016-27.8016 62.0032-62.0032 62.0032h-111.7696a38.4 38.4 0 0 0 0 76.8h111.7696a138.9568 138.9568 0 0 0 138.8032-138.8032v-118.784a38.4 38.4 0 0 0-38.4-38.4zM882.6368 2.56h-111.7696a38.4 38.4 0 0 0 0 76.8h111.7696c34.2016 0 62.0032 27.8528 62.0032 62.0544v117.3504a38.4 38.4 0 0 0 76.8 0V141.4144A139.008 139.008 0 0 0 882.6368 2.56z" fill="#438CFF" p-id="6168"></path><path d="M162.9696 746.24v110.6944c0 21.1968 17.2032 38.4 38.4 38.4h621.312a38.4 38.4 0 0 0 38.4-38.4v-110.6944a38.4 38.4 0 0 0-76.8 0v72.2944H239.7696v-72.2944a273.408 273.408 0 0 1 217.344-266.6496 38.4 38.4 0 0 0 8.96-72.192 105.5744 105.5744 0 0 1-60.5184-95.488c0-58.6752 47.7696-106.4448 106.4448-106.4448 58.6752 0 106.3936 47.7696 106.3936 106.4448a105.472 105.472 0 0 1-60.5184 95.488c-0.768 0.3584-1.1776 1.0752-1.9456 1.4848a38.0928 38.0928 0 0 0-6.0928 4.608c-1.8944 1.6384-3.7888 3.1744-5.2736 5.12-1.3824 1.792-2.3552 3.7888-3.3792 5.8368a40.192 40.192 0 0 0-3.2256 7.4752c-0.2048 0.8192-0.768 1.4336-0.9728 2.2528-0.3072 1.5872 0.1024 3.072 0 4.6592a39.5264 39.5264 0 0 0-0.0512 7.7824 35.328 35.328 0 0 0 1.9968 7.68c0.512 1.4848 0.4608 3.0208 1.1264 4.4032 0.3584 0.768 1.0752 1.2288 1.4848 1.9456a34.048 34.048 0 0 0 4.6592 6.144c1.6384 1.8944 3.1744 3.7376 5.12 5.2224 1.792 1.3824 3.7376 2.304 5.7856 3.3792a36.6592 36.6592 0 0 0 7.5776 3.2256c0.768 0.2048 1.3824 0.768 2.2016 0.9216a274.6368 274.6368 0 0 1 148.3264 86.0672 38.2976 38.2976 0 0 0 54.2208 3.1232 38.3488 38.3488 0 0 0 3.1232-54.2208 352.4096 352.4096 0 0 0-119.3984-86.1696 181.248 181.248 0 0 0 42.0352-116.4288A183.3984 183.3984 0 0 0 512 128.6656a183.3984 183.3984 0 0 0-183.2448 183.2448c0 43.2128 14.9504 83.6608 41.216 115.6096-123.2896 55.296-207.0016 179.5584-207.0016 318.72z" fill="#438CFF" p-id="6169"></path></svg>