<?xml version="1.0" standalone="no"?><!DOCTYPE svg PUBLIC "-//W3C//DTD SVG 1.1//EN" "http://www.w3.org/Graphics/SVG/1.1/DTD/svg11.dtd"><svg t="1697722156419" class="icon" viewBox="0 0 1024 1024" version="1.1" xmlns="http://www.w3.org/2000/svg" p-id="944" xmlns:xlink="http://www.w3.org/1999/xlink" width="200" height="200"><path d="M816.82128592 776.452237c47.21261985-48.98573275 46.25506608-126.82793718-2.14326992-174.64373097-48.40319052-47.80972563-126.25631763-47.80972563-174.65950815 0-48.39590875 47.81579378-49.35346252 125.65799822-2.1420563 174.64373097-59.52974697 32.57381925-96.65467733 94.92404148-96.92288947 162.78292858a31.06770489 31.06770489 0 0 0 9.10222222 21.96912357 31.03008237 31.03008237 0 0 0 21.9630554 9.0973677h310.66127171a31.05678222 31.05678222 0 0 0 31.06649126-31.06649127c-0.26578489-67.85888711-37.39556978-130.20910933-96.92531675-162.78292858z m-89.47363081-147.87227497c34.31416415 0 62.13298252 27.81396385 62.13298252 62.13055527 0 34.31295052-27.81881837 62.13176889-62.13298252 62.13176888-34.31173689 0-62.13055525-27.81881837-62.13055526-62.13176888 0-34.31659141 27.81881837-62.13055525 62.13055526-62.13055527z m-120.53648119 279.59113956c14.18975763-54.94222697 63.79201422-93.29413689 120.53648119-93.19461926 56.74810785-0.09951763 106.35036445 38.2523923 120.53890844 93.19461926h-241.07538963z" fill="#FF6600" p-id="945"></path><path d="M743.70010075 94.57200233H146.76544475c-27.69502815 0-50.34499792 21.47153541-52.25403734 48.63135289v740.53980919a52.31471882 52.31471882 0 0 0 52.19699674 48.65077096H492.53338075c2.09472475-65.03598459 31.02644148-125.58275318 78.66504533-167.96512713-11.21272415-23.54441482-16.973824-49.52579792-16.64493038-76.33244916 0.56191052-45.75262341 18.79548208-88.66049897 51.34624238-120.82047053 32.5592557-32.15997155 75.68922548-49.86925511 121.44913067-49.8692551 24.00438045 0 47.28301037 4.88121837 68.69386428 14.15698963V146.91463463c0-28.95234845-23.45217897-52.3426323-52.34263228-52.3426323zM430.64069689 604.24911522H251.1545837a29.23876503 29.23876503 0 0 1-25.31874133-14.62180977 29.229056 29.229056 0 0 1 0-29.24119231 29.229056 29.229056 0 0 1 25.31874133-14.62059614h179.48611319c16.15341037 0 29.2411923 13.08899555 29.24119229 29.2411923 0 16.14855585-13.08899555 29.24240592-29.24119229 29.24240592z m108.89413214-178.95818431H251.21769245c-16.15098311 0-29.24240592-13.09020918-29.24240593-29.24119228 0-16.14734222 13.09142282-29.2411923 29.24240593-29.2411923h288.31713658c16.15219675 0 29.2411923 13.09385008 29.2411923 29.2411923 0 16.15098311-13.08899555 29.2411923-29.2411923 29.24119228z m0-155.26934754H251.21769245c-16.15098311 0-29.24240592-13.09385008-29.24240593-29.24604682 0-16.14612859 13.09142282-29.23997867 29.24240593-29.23997866h288.31713658c16.15219675 0 29.2411923 13.09385008 29.2411923 29.23997866 0 16.15219675-13.08899555 29.24604682-29.2411923 29.24604682z" fill="#13a783" p-id="946"></path></svg>