<?xml version="1.0" standalone="no"?><!DOCTYPE svg PUBLIC "-//W3C//DTD SVG 1.1//EN" "http://www.w3.org/Graphics/SVG/1.1/DTD/svg11.dtd"><svg t="1697639678312" class="icon" viewBox="0 0 1024 1024" version="1.1" xmlns="http://www.w3.org/2000/svg" p-id="1068" xmlns:xlink="http://www.w3.org/1999/xlink" width="200" height="200"><path d="M550.47205925 81.16148148v648.07822222c0 20.14625185-16.26263703 36.40888889-36.40888888 36.40888889s-36.40888889-16.26263703-36.40888889-36.40888889V81.16148148c0-20.14625185 16.26263703-36.40888889 36.40888889-36.40888889 20.02488889 0 36.40888889 16.26263703 36.40888888 36.40888889z" fill="#ff6600" p-id="1069"></path><path d="M282.74536297 292.33303703c14.32082963 14.32082963 37.25842963 14.32082963 51.57925925 0l145.5141926-145.51419258c18.93262222-18.93262222 49.63745185-18.93262222 68.69143703 0L694.04444445 292.33303703c14.19946667 14.19946667 37.25842963 14.19946667 51.4578963 0s14.19946667-37.25842963 0-51.45789628L548.0448 43.66032592c-18.93262222-18.93262222-49.75881482-18.93262222-68.69143703 0L282.624 240.87514075c-14.0781037 14.32082963-14.0781037 37.25842963 0.12136297 51.45789628zM926.69724445 998.66548148h-825.26814815c-40.17114075 0-72.81777778-32.64663703-72.81777778-72.81777778V599.01724445c0-19.90352592 15.53445925-36.65161482 35.43798518-37.25842963 20.51034075-0.48545185 37.37979259 16.01991111 37.3797926 36.40888888v291.27111112c0 20.14625185 16.26263703 36.40888889 36.40888888 36.40888888h752.45037037c20.14625185 0 36.40888889-16.26263703 36.4088889-36.40888888V599.01724445c0-19.90352592 15.53445925-36.65161482 35.43798518-37.25842963 20.51034075-0.48545185 37.37979259 16.01991111 37.37979259 36.40888888v327.68c0 40.17114075-32.64663703 72.81777778-72.81777777 72.81777778z" fill="#ff6600" p-id="1070"></path></svg>